<svg id="sw-js-blob-svg" xmlns="http://www.w3.org/2000/svg" viewBox="0 0 102.7 85.11"><defs><style>.cls-1{fill:none;stroke:#e7562e;stroke-miterlimit:10;stroke-width:0.15px;}</style></defs><path class="cls-1" d="M54.24,6.77c16.16.07,24.63,1.08,40,18,15.9,17.43,13.91,32,2.62,40.69C86.61,74.76,79.6,87.91,64.4,90.67c-16.82,1.67-31.46,1.09-37.75-1.11C19.38,86.46,5.87,70.84,3.51,58.85,1.55,47,8.89,37.57,14.38,24.62,19.23,11.34,37,5.86,54.24,6.77Z" transform="translate(-3.11 -6.6)"/><path class="cls-1" d="M56.6,16.84C69,17.88,75.36,19.17,85.86,33c10.88,14.35,8.28,25.39-1,31.39C76.32,71,70,80.65,58.16,81.85c-13,.26-24.16-1.07-28.81-3.15-5.33-2.82-14.51-15.62-15.42-25-.63-9.2,5.69-16,10.85-25.61C29.47,18.22,43.45,15.09,56.6,16.84Z" transform="translate(-3.11 -6.6)"/><path class="cls-1" d="M57.65,24.71c9.38,1.55,14.19,2.92,21.2,14.21,7.25,11.67,4.45,20-3.1,24C68.74,67.46,63.17,74.5,54,74.7c-10-.59-18.4-2.29-21.8-4.17-3.88-2.48-9.95-12.87-10-20.1.21-7.1,5.54-11.94,10.2-19C36.8,24.12,47.72,22.57,57.65,24.71Z" transform="translate(-3.11 -6.6)"/><path class="cls-1" d="M57.88,30.81C64.94,32.57,68.52,33.92,73,43,77.73,52.4,75,58.62,68.89,61.26c-5.7,3-10.48,8.1-17.48,7.7C43.83,67.9,37.49,66.09,35,64.44c-2.78-2.14-6.66-10.48-6.13-16,.68-5.44,5.13-8.83,9.21-14C42,29.1,50.44,28.57,57.88,30.81Z" transform="translate(-3.11 -6.6)"/><path class="cls-1" d="M57.6,35.51c5.27,1.78,7.91,3,10.7,10.28,2.89,7.5.31,12.1-4.53,13.76-4.59,2-8.62,5.58-14,4.84-5.72-1.27-10.43-3-12.19-4.46-2-1.81-4.32-8.45-3.51-12.67s4.58-6.47,8.09-10.16C45.55,33.23,52.07,33.34,57.6,35.51Z" transform="translate(-3.11 -6.6)"/><path class="cls-1" d="M57,39.1c3.9,1.69,5.82,2.81,7.42,8.54,1.66,5.93-.65,9.3-4.48,10.28-3.66,1.25-7,3.76-11,2.88-4.29-1.33-7.76-3-9-4.17-1.37-1.51-2.68-6.75-1.74-9.94s4-4.68,6.93-7.3C48,36.62,53,37.1,57,39.1Z" transform="translate(-3.11 -6.6)"/><path class="cls-1" d="M56.34,41.82c2.86,1.53,4.25,2.51,5,7s-1.19,7.1-4.19,7.62c-2.89.73-5.64,2.46-8.66,1.53-3.18-1.27-5.71-2.75-6.57-3.74C41,53,40.42,48.9,41.37,46.5s3.39-3.35,5.85-5.18S53.38,40,56.34,41.82Z" transform="translate(-3.11 -6.6)"/><path class="cls-1" d="M55.61,43.87c2.07,1.35,3.06,2.18,3.34,5.68s-1.44,5.38-3.77,5.59c-2.27.39-4.5,1.55-6.74.66a15.48,15.48,0,0,1-4.75-3.27,8,8,0,0,1,.12-6c.94-1.72,2.84-2.37,4.86-3.62S53.47,42.32,55.61,43.87Z" transform="translate(-3.11 -6.6)"/><path class="cls-1" d="M54.89,45.39C56.38,46.55,57.08,47.25,57,50s-1.5,4-3.3,4.06-3.55.92-5.2.09a11.55,11.55,0,0,1-3.4-2.8,6.23,6.23,0,0,1,.54-4.57c.85-1.27,2.35-1.65,4-2.49S53.38,44.07,54.89,45.39Z" transform="translate(-3.11 -6.6)"/><path class="cls-1" d="M54.24,46.52c1,1,1.53,1.56,1.29,3.63s-1.44,3-2.82,2.92-2.79.49-4-.24a8.67,8.67,0,0,1-2.39-2.36A4.85,4.85,0,0,1,47.08,47c.74-.92,1.92-1.12,3.23-1.66S53.17,45.42,54.24,46.52Z" transform="translate(-3.11 -6.6)"/></svg>