<?xml version="1.0" encoding="utf-8"?>
<!-- Generator: Adobe Illustrator 25.2.0, SVG Export Plug-In . SVG Version: 6.00 Build 0)  -->
<svg version="1.1" id="Layer_1" xmlns="http://www.w3.org/2000/svg" xmlns:xlink="http://www.w3.org/1999/xlink" x="0px" y="0px"
	 viewBox="0 0 200 200" style="enable-background:new 0 0 200 200;" xml:space="preserve">
<path d="M146.1,38.7c15.5,6.5,27.6,22.5,34.3,40.8c6.7,18.4,8.1,39.1,0.4,54.8c-7.7,15.8-24.5,26.7-40.8,34.7
	c-16.2,8-31.8,13.1-45.1,9.8c-13.3-3.1-24.3-14.6-35.3-24.3C48.7,144.9,37.8,136.9,33,126c-4.9-10.9-3.7-24.8-2.1-41.1
	c1.7-16.4,3.8-35.3,14.2-43.3c10.4-8.1,28.9-5.6,47.8-5.8C111.5,35.5,130.6,32.2,146.1,38.7z"/>
</svg>
