<?xml version="1.0" encoding="utf-8"?>
<!-- Generator: Adobe Illustrator 25.2.0, SVG Export Plug-In . SVG Version: 6.00 Build 0)  -->
<svg version="1.1" id="Layer_1" xmlns="http://www.w3.org/2000/svg" xmlns:xlink="http://www.w3.org/1999/xlink" x="0px" y="0px"
	 viewBox="0 0 200 200" style="enable-background:new 0 0 200 200;" xml:space="preserve">
<style type="text/css">
	.st0{fill:#E7562E;}
</style>
<path class="st0" d="M148,38.3c13.9,5.8,24.7,20.2,30.7,36.6c6,16.5,7.3,35,0.4,49.1c-6.9,14.2-22,23.9-36.6,31.1
	c-14.5,7.2-28.5,11.7-40.4,8.8c-11.9-2.8-21.8-13.1-31.6-21.8c-9.8-8.6-19.6-15.8-23.9-25.6c-4.4-9.8-3.3-22.2-1.9-36.8
	c1.5-14.7,3.4-31.6,12.7-38.8c9.3-7.3,25.9-5,42.8-5.2C117,35.4,134.1,32.5,148,38.3z"/>
</svg>
