<?xml version="1.0" encoding="utf-8"?>
<!-- Generator: Adobe Illustrator 25.2.0, SVG Export Plug-In . SVG Version: 6.00 Build 0)  -->
<svg version="1.1" id="blobSvg" xmlns="http://www.w3.org/2000/svg" xmlns:xlink="http://www.w3.org/1999/xlink" x="0px" y="0px"
	 viewBox="0 0 400 500" style="enable-background:new 0 0 400 500;" xml:space="preserve">
<style type="text/css">
	.st0{fill:#6090C8;}
</style>
<path id="blob" class="st0" d="M379.2,278.4c-2.7,18.9-7.9,37.3-15.6,55.2s-18.3,34-31.6,48.4c-13.3,14.4-29.2,25.2-47.6,32.4
	c-18.4,7.2-37.1,12.7-56,16.4c-18.9,3.7-37.7,3.1-56.4-2c-18.7-5.1-37.1-10.8-55.2-17.2S81.7,395.7,66,383.2s-26.3-28.5-31.6-48
	s-9.9-38.5-13.6-57.2c-3.7-18.7-4.7-37.7-2.8-57.2s6.8-38.3,14.8-56.4s20-32.9,36-44.4s32.5-21.5,49.6-30s34.9-16.7,53.6-24.4
	s37.9-9.3,57.6-4.8s38.7,11.1,56.8,19.6c18.1,8.5,34.7,19.7,49.6,33.6s26.5,30.1,34.8,48.8c8.3,18.7,12.4,37.9,12.4,57.6
	S381.9,259.5,379.2,278.4z"/>
</svg>
