<?xml version="1.0" standalone="no"?>
<svg viewBox="0 0 200 200" xmlns="http://www.w3.org/2000/svg">
  <path fill="#FF0066" d="M46.4,-72.7C60.3,-63.1,72.1,-50.7,80.5,-35.8C88.9,-20.8,93.9,-3.3,92.2,13.7C90.4,30.6,81.8,47.1,69.6,59.4C57.5,71.8,41.7,80.1,24.9,85.1C8.1,90.1,-9.7,91.9,-26,87.6C-42.3,83.3,-57.2,72.8,-67.6,59.4C-78,45.9,-83.9,29.4,-86.1,12.5C-88.3,-4.3,-86.7,-21.6,-79.8,-36.4C-72.9,-51.1,-60.8,-63.4,-46.6,-72.9C-32.4,-82.4,-16.2,-89.1,0,-89.1C16.2,-89,32.4,-82.3,46.4,-72.7Z" transform="translate(100 100)" />
</svg>
