<svg id="Layer_1" data-name="Layer 1" xmlns="http://www.w3.org/2000/svg" viewBox="0 0 306.62 306.68"><defs><style>.cls-1{fill:#6090c8;}</style></defs><path class="cls-1" d="M217.19,176.15a61.26,61.26,0,0,1,19.06-20.7c16.18-11,34.26-13.38,53.23-11.59,10.75,1,21.13,3.45,30.62,8.79,15.55,8.77,23.84,22.82,28.39,39.51,4.36,16,5.11,32.46,5.15,48.93.09,35.92,0,71.83.07,107.75,0,2.53-.24,3.68-3.31,3.65q-28.62-.24-57.24,0c-2.78,0-3.15-.93-3.14-3.38q.09-51.25,0-102.51A110.89,110.89,0,0,0,288.06,225c-4.29-21.32-18-28-37-25.79-17.88,2.07-27.6,12.66-30.51,31.91a141,141,0,0,0-1.45,21.24c0,32.3,0,64.6.07,96.9,0,2.81-.54,3.75-3.6,3.73q-28.43-.24-56.86,0c-2.67,0-3.26-.74-3.26-3.32q.12-99.15,0-198.29c0-2.34.45-3.22,3-3.2q27.5.16,55,0c2.65,0,3.06,1,3,3.25-.12,7-.07,14,0,20.95C216.5,173.53,216,174.82,217.19,176.15Z" transform="translate(-47.1 -46.33)"/><path class="cls-1" d="M52.16,250.54c0-32.77.06-65.55-.08-98.33,0-3.3.78-4.1,4.07-4.07q27.85.27,55.7,0c3,0,4,.55,4,3.78q-.15,98.72,0,197.42c0,3-.83,3.66-3.71,3.64q-28.23-.19-56.45,0c-3.12,0-3.57-1-3.56-3.77Q52.23,299.9,52.16,250.54Z" transform="translate(-47.1 -46.33)"/><path class="cls-1" d="M120.65,83c.13,20.29-16.39,37.17-36.49,37.28S47.1,103.54,47.1,83.16A36.78,36.78,0,0,1,120.65,83Z" transform="translate(-47.1 -46.33)"/></svg>