<svg id="Layer_1" data-name="Layer 1" xmlns="http://www.w3.org/2000/svg" viewBox="0 0 359.15 359.04"><path d="M288.24,379.16c-15.6-1.42-30.59-5.39-45.23-10.8-34.95-12.92-65.95-32.53-94.63-56-39.94-32.71-73.3-71-98.62-116.13-12.54-22.35-22.2-45.85-27.07-71.14-.77-4-1.18-8.13-1.78-12.2-.64-4.35,1.19-8,3.19-11.65C34.26,82.94,47.23,66.7,61.05,51.11A192.55,192.55,0,0,1,88.2,25.49c12.64-9.66,24.64-4.91,31.52,4.35,17.89,24.09,34.55,49.07,46.43,76.81,6.78,15.81,5.1,22.45-7.59,34-5.7,5.22-11.62,10.2-17.54,15.16-1.75,1.46-2.32,2.64-1.43,5q27.21,72.45,99.62,99.6c2.31.86,3.5.43,5-1.32,6.43-7.28,12.26-15.1,19.26-21.88s14.74-9,23.95-5.62c3.62,1.33,7.32,2.48,10.79,4.12,25.42,12,48.72,27.52,71.42,43.95,5.91,4.28,9,10.52,10.14,17.7.48,3-.52,5.65-1.76,8.26a50,50,0,0,1-7.91,11.74,288.49,288.49,0,0,1-71.7,58.68C295.35,377.87,292.07,379.54,288.24,379.16Z" transform="translate(-20.78 -20.18)"/></svg>