<svg id="Layer_1" data-name="Layer 1" xmlns="http://www.w3.org/2000/svg" viewBox="0 0 357.82 376.58"><defs><style>.cls-1{fill:#e6562e;}</style></defs><path class="cls-1" d="M332.37,67.12c-8.24,2.68-15.71,4.9-23,7.53-29.07,10.41-58.26,10.36-87.49,1C205.09,70.26,190,61.4,174.73,52.85c-5.58-3.13-11.63-5.42-17.41-8.2a12.29,12.29,0,0,1-2.62-2.35c1.09-.61,2.13-1.59,3.29-1.76,24.91-3.8,49.84-5.06,75-2.2,22.86,2.6,43.63,11,63.95,21,5.14,2.55,10.27,5.16,15.53,7.45a11.87,11.87,0,0,0,6.08,1,80.77,80.77,0,0,0,11.54-2.59,28.83,28.83,0,0,0,13-8.16c17.51-18.32,35.22-36.46,52.85-54.66q2-2,3.94-4.1l1.33.7c-.34,1-.38,2.36-1.07,3.07-7.76,8.08-15.67,16-23.46,24.07q-12.85,13.29-25.54,26.76a9.61,9.61,0,0,0-1.91,3.48c-.71,2.14-1,4.41-1.77,6.54-2.61,7.56-.69,13.07,5.06,19.16,16.87,17.85,30.53,38,37.31,62a54.65,54.65,0,0,1,2.33,12.29c.45,10.28,2.89,20.1,5.73,29.89.89,3.07,1.43,6.25,2.12,9.37l-1.09,1c-3.34-1.86-7.16-3.17-9.93-5.66-17.76-16-32-34.64-41-56.87-5.29-13.09-5.72-27.2-5.66-41.09.06-11.31,1.39-22.61,2.19-34.3-6.91,7.18-13.85,14.56-21,21.74C318.3,85.8,312.78,90.83,307.4,96a6.68,6.68,0,0,0-1.48,1.8c-1.83,3.75-3.39,7.64-5.4,11.28-4.57,8.25-3.4,16.18.75,24.13,4,7.69,8.14,15.32,11.73,23.2,5.61,12.33,6.76,25.72,8.21,39a133.1,133.1,0,0,1-1.82,43.2,18.12,18.12,0,0,1-1.58,3.49c-.8-.92-1.65-1.79-2.38-2.75-3.55-4.66-7.74-9-10.47-14.1-8.24-15.42-16.12-31-20.72-48.07-4-14.92-2.4-29.31,3.48-43.41,4.06-9.74,8.06-19.5,11.55-29.64-1.78,1.58-3.64,3.09-5.35,4.74-12.36,12-24.89,23.74-36.92,36-3.27,3.34-5.14,8.11-7.42,12.35-.49.92-.08,2.42.14,3.62,2.18,12,6.43,23.33,11.62,34.23,11.51,24.17,14.48,49.41,11.1,75.71a137.78,137.78,0,0,0-.93,17.94c.05,11.81-3.88,22.35-9.64,32.38a15.75,15.75,0,0,1-2.44,2.58c-.56-.65-.93-.87-1-1.13-1.52-12.68-7.16-23.92-12.34-35.32-18.32-40.3-18-80.92-2.23-121.85,1.24-3.22,2.16-6.56,3-9.22-13.26,14.23-26.76,28.89-40.49,43.34-3.68,3.87-7.56,7.46-8.85,12.87a8.41,8.41,0,0,0,0,4.17,292.9,292.9,0,0,0,14.64,39.27c6.2,13.24,7.27,27.67,7.24,42.11a116.94,116.94,0,0,1-1.12,15.53c-1.09,8-5.92,14.21-9.94,20.9-6.32,10.51-12,21.42-18,32.13a24.66,24.66,0,0,1-3.44,5c-2,2.1-3.95,1.72-4.81-1.06a19.6,19.6,0,0,1-.79-7c1.32-19,.75-37.95-3.11-56.66-3-14.49-3.66-28.82.27-43.3a96.07,96.07,0,0,0,2.72-17.72c.69-8.79,5.05-16,9-23.47a49.66,49.66,0,0,0,4.18-10.77c-4.86,4-9.94,7.84-14.54,12.14-7.83,7.32-15.64,14.69-22.9,22.56-4.84,5.24-6,12.48-7.77,19.2-1,3.9-1.1,8.05-1.37,12.11-1.82,28.46-14.39,51.34-36,69.57-17.39,14.69-37.5,23.56-59.76,27.77a19,19,0,0,1-4.18-.1c.6-1.36.86-3.06,1.84-4,15.12-14.71,26-32.62,37.64-49.93,8-11.89,15.82-23.93,26-34.2Q130,269.83,146.46,253c4.24-4.32,8.4-8.72,12.6-13.08l-1-1.23c-6.64,4.11-13.31,8.16-19.91,12.34-9.18,5.8-18.72,10.85-29.1,14.21a63,63,0,0,1-29.13,2.18c-11.33-1.68-22.74-2.17-34.13-.16a6.45,6.45,0,0,1-2.4-.57c.31-.77.39-1.87,1-2.27,4.87-3.44,9.58-7.22,14.8-10,9.73-5.21,19.87-9.65,29.67-14.73,15-7.76,30.27-8.17,46-2.74a24.26,24.26,0,0,1,4.18,1.32c7.32,4.12,13.5,1.16,19.76-2.73,13.88-8.6,26.25-19.07,38-30.36C201,201,205,196.61,209.45,192c-3.16.21-6.21.28-9.23.62-21.89,2.43-43.91,3.92-65.4-1.81-11.34-3-22.24-8.09-32.93-13.1-10.38-4.85-20.93-8.22-32.38-9.12-5.37-.43-10.69-1.72-16-2.76-1.2-.24-2.27-1.07-4.41-2.13,3.45-2.35,5.89-4.62,8.78-5.84A108.33,108.33,0,0,1,75,151.73a145.44,145.44,0,0,1,38-4.4c17.57.49,33.21,7.08,48,15.92,11.79,7.05,23.19,14.77,34.86,22,4.64,2.88,9.59,5.35,15.31,3.19a12.75,12.75,0,0,0,4.86-2.83c9.29-10.2,18.33-20.63,27.66-30.79,6.27-6.83,12.89-13.33,19.34-20a67,67,0,0,0,4.84-5.38c-7.71,3.17-16.13,2.69-24.06,5.51-8.08,2.88-16.88,4-25.47,5.09-9,1.2-18.18,1.72-27.3,2.2-13,.68-25.29-2.87-37.22-7.65-5.54-2.23-11-4.63-16.4-7.23-7.53-3.63-15.15-6.94-23.38-8.76-2.15-.48-4.07-2-6.1-3,0-.36.09-.72.14-1.09a15.15,15.15,0,0,1,3-1.52c36.11-9.13,71.9-10.3,107.13,4.19,8.34,3.43,17,6.16,24.1,12a4,4,0,0,0,2.47.92c10.79-.53,21.56-1.35,30.68-8a95,95,0,0,0,9.62-8.45q23.24-22.35,46.35-44.82A11.36,11.36,0,0,0,332.37,67.12Zm-148,302.31.81.12c1.4-2.29,2.88-4.54,4.19-6.88,5.79-10.3,10.88-21.08,17.49-30.82,6.42-9.47,10-19.32,9.88-30.64,0-3-.08-6.1-.19-9.15-.48-14.12-2.68-27.78-9.05-40.67-3.44-6.94-5.84-14.39-8.57-21.66-1.28-3.39-2.23-6.89-3.5-10.89a81.08,81.08,0,0,0-2.52,49,170.91,170.91,0,0,1,5,26.94c.56,6.26-1,12.72-1.78,19.07-.08.66-1.31,1.19-2,1.78-.19-.86-.73-1.83-.51-2.57a51.16,51.16,0,0,0,1.2-22.84c-.92-5.68-2.16-11.31-3.44-16.92-2.38-10.48-4.88-20.93-3.82-31.81.3-3.07.74-6.12,1.11-9.17l-1.11-.27c-1.13,4.4-2.5,8.74-3.33,13.19-1.07,5.77-1.63,11.62-2.55,17.42s-2.31,11.74-3,17.67c-1.3,11.78,2.31,23.07,3.91,34.56,2.22,16,3.18,32.11,1.71,48.28A56.37,56.37,0,0,0,184.34,369.43ZM253.9,268.35l-1.64.13a13.81,13.81,0,0,1-.53-3.37,119.59,119.59,0,0,0-2.08-33.4c-2.07-10.64-4.53-21.21-6.36-31.89-1.06-6.21-1.2-12.58-1.75-18.89a4.76,4.76,0,0,0-.38.82c-4.94,18.37-7.31,37-5.54,56,1.61,17.48,6.52,34,13.72,50,4.31,9.55,8,19.36,11.83,28.64,5.46-10.07,7-16.08,7.46-28,.26-6.88.72-13.76,1.31-20.63,1.56-18,2.13-36-4.12-53.3-6-16.54-12.6-32.85-18.82-48.94a72.78,72.78,0,0,0-1.82,25.94c1.08,8.61,2.75,17.16,4.49,25.68,3.13,15.3,6.17,30.59,4.92,46.35C254.46,265.15,254.13,266.75,253.9,268.35ZM308.26,68.9c-20.17-10.7-40.09-21.7-62.7-25.7-28.14-5-56.37-5.34-84.58,0,4.89,2.27,9.93,4.42,14.79,6.91C188,56.41,199.8,63.57,212.36,69c29.07,12.63,59.1,13.77,89.55,5.33,2.22-.62,4.36-1.53,6.54-2.31a3.78,3.78,0,0,0-2.23-.61c-21.66-1.2-43.44-1.67-64.67-6.72-18.23-4.33-36.32-9.21-54.46-13.91-.7-.18-1.24-1-1.85-1.49.8-.4,1.7-1.27,2.4-1.13A124.47,124.47,0,0,1,200.19,51c27.42,8.23,55.05,15.32,83.88,16.39C292.14,67.71,300.2,68.39,308.26,68.9Zm-217.88,274-.65-1.27c21.61-24.08,37.4-51.89,52.15-80.9-2.31,2.39-4.38,4.47-6.37,6.63-10.34,11.19-21.5,21.76-30.77,33.78-12,15.51-22.24,32.32-33.59,48.33-5.51,7.79-11.78,15-17.45,22.19.12,0,1.09-.15,2-.36,20.16-4.49,38.43-12.88,54.34-26.2,14.81-12.41,26.27-27.34,31-46.22,3.38-13.56,4.83-27.6,7.17-41.62-2.26,3.5-4.69,6.75-6.62,10.28-9.62,17.59-18.45,35.65-30.76,51.64q-8.56,11.12-17.32,22.1C92.84,342.08,91.44,342.34,90.38,342.86ZM55,162.45l.27,1.24c4.11.64,8.19,1.63,12.31,1.84,13.46.7,25.87,4.69,37.77,10.86,16.6,8.6,34,14.79,53,15,10.3.11,20.61,0,30.91,0-6.76-2.83-13.55-4.78-20.13-7.25-11.29-4.25-22.31-9.21-33.69-13.16s-23.21-5.8-35.21-6.63c-.91-.06-1.75-1.14-2.62-1.74a8.67,8.67,0,0,1,2.81-.9c3.16.14,6.31.45,9.45.81,20,2.28,38.56,9.32,56.72,17.55a110.09,110.09,0,0,0,27.91,8.27c-.19-.41-.23-.66-.37-.75-9.85-6.35-19.64-12.78-29.58-19-11.7-7.31-23.82-13.91-37.53-16.56-21.91-4.23-43.18-.73-64,6.24C60.18,159.18,57.68,161,55,162.45ZM345.12,92.91c.63,31.43,2.89,41.89,19.57,65.91,8.73,12.56,17.49,25.39,31.87,33.84-.45-2-.71-3.17-1-4.35-1.81-7.68-4.72-15.28-5.21-23-.94-14.63-5.08-28.1-11.29-41.16s-15.16-24.5-24.39-35.61c-2.52-3-5.25-5.86-7.89-8.78.55,10.12,3.54,19.21,7.35,28.05,5.52,12.83,11.17,25.61,16.64,38.46.5,1.17.12,2.71.14,4.08-.9-1.09-2.12-2.05-2.66-3.31C360.39,128.76,352.61,110.47,345.12,92.91ZM240.73,134l-.07-1.09a402.15,402.15,0,0,1-61.52-6.83c-9.31-1.76-18.61-3.61-28-5.17-2.86-.47-5.86,0-8.79-.13-.62,0-1.21-.71-1.82-1.1.5-.52.93-1.4,1.49-1.5a17.61,17.61,0,0,1,5.06-.32c6.38.77,12.83,1.3,19.09,2.67,19.56,4.27,39.24,7.66,59.22,9.08,4,.28,8,.32,12.07.47l.27-1.18c-19-9.59-38.69-17-60.19-19.15-18.92-1.87-55,1.32-62.22,5.3,10.35,4.53,21.21,9.35,32.12,14.06,16.32,7.06,33.05,12.18,51.15,10.59,3.81-.33,7.63-.73,11.42-1.26C220.28,137,230.5,135.52,240.73,134Zm54.8-6.14c.25,5.52.21,10.49.74,15.4,2.48,23,6.89,45.58,14.49,67.48.3.86-.13,2-.23,2.95-.8-.72-2-1.3-2.33-2.19-2.05-6.21-4.13-12.43-5.75-18.76-5.27-20.62-9.16-41.47-9.8-63.27-7,14.47-10.29,29.18-6.14,44.6,6.08,22.6,15.58,43.67,30.34,63,.39-2.09.69-3.49.91-4.9,2.31-14.54,1.91-29.08-.07-43.6-1.81-13.35-4-26.57-10.85-38.55C302.87,143.09,299.55,135.82,295.53,127.89ZM81,256.35l-.8-.71c.85-.66,1.6-1.66,2.55-1.91,3.48-.93,7-1.78,10.57-2.36,12.71-2.07,25.45-4,38.15-6,3.65-.6,7.22-1.63,10.83-2.46a95.54,95.54,0,0,0-15.64-5.25,48.17,48.17,0,0,0-34,3.45c-11.31,5.58-22.71,11-34,16.62-3,1.51-5.81,3.55-8.44,5.18,10.15.58,20.33.54,30.33,1.88A62.16,62.16,0,0,0,115,260c8.42-3.77,16.51-8.3,24.74-12.5l-.42-.67Z" transform="translate(-43.39 1.66)"/></svg>